<?xml version="1.0" encoding="UTF-8"?><svg id="Layer_2" xmlns="http://www.w3.org/2000/svg" viewBox="0 0 100 139.4"><defs><style>.cls-1{fill:#231f20;}.cls-2{fill-rule:evenodd;}</style></defs><g id="Layer_1-2"><g><g><path class="cls-2" d="M80.07,0c11,0,19.93,8.92,19.93,19.93v.03l-19.93-.03V0Z"/><rect x=".11" width="59.51" height="19.93"/><rect y="79.76" width="59.51" height="19.93"/><path class="cls-2" d="M19.85,59.99C8.89,59.99,0,51.1,0,40.14v-.03l19.85,.03v19.85Z"/><rect x="80.07" y="39.85" width="19.93" height="59.83"/></g><g><path class="cls-1" d="M14.15,127.21H.84c.13,3.65,2.78,6.32,6.31,6.32,2.52,0,4.52-1.31,5.66-3.51h.9c-1.35,2.82-3.64,4.34-6.56,4.34-4.07,0-7.15-3.2-7.15-7.43s3.08-7.39,7.15-7.39,7.01,3.2,7.01,7.31c0,.11,0,.24-.01,.36Zm-13.3-.8H13.33c-.22-3.61-2.83-6.05-6.18-6.05s-6.06,2.54-6.3,6.05Z"/><path class="cls-1" d="M17.79,115.18h1.24v1.47h-1.24v-1.47Zm.2,4.64h.85v14.26h-.85v-14.26Z"/><path class="cls-1" d="M36.71,119.82v12.16c0,4.62-2.55,7.41-6.75,7.41-3.18,0-5.43-1.61-6.32-4.36h.85c.85,2.29,2.85,3.57,5.47,3.57,3.66,0,5.92-2.44,5.92-6.54v-2.17c-1.12,2.24-3.39,3.68-6.14,3.68-3.94,0-6.95-3.02-6.95-7.01s3.02-7.02,6.95-7.02c2.8,0,5.11,1.53,6.21,3.86l.12-3.58h.64Zm-.84,6.74c0-3.56-2.58-6.2-6.07-6.2s-6.15,2.69-6.15,6.2,2.65,6.19,6.15,6.19,6.07-2.62,6.07-6.19Z"/><path class="cls-1" d="M48.98,119.79v.81h-1.28c-2.98,0-4.97,2.3-4.97,5.46v8.03h-.85v-14.26h.67l.14,3.23c.89-2,2.66-3.27,5.06-3.27h1.23Z"/><path class="cls-1" d="M49.99,126.96c0-4.27,3.19-7.41,7.42-7.41s7.42,3.17,7.42,7.41-3.17,7.41-7.42,7.41-7.42-3.17-7.42-7.41Zm13.98,0c0-3.77-2.79-6.58-6.56-6.58s-6.56,2.79-6.56,6.58,2.81,6.58,6.56,6.58,6.56-2.81,6.56-6.58Z"/><path class="cls-1" d="M68.49,128.1v-8.28h.85v8.18c0,3.41,1.98,5.53,5.16,5.53s5.16-2.13,5.16-5.53v-8.18h.85v8.28c0,3.81-2.32,6.26-6.01,6.26s-6.01-2.45-6.01-6.26Z"/><path class="cls-1" d="M100,126.96c0,4.21-3.01,7.41-7.24,7.41-2.9,0-5.31-1.57-6.48-3.96v8.73h-.85v-19.3h.65l.17,3.73c1.17-2.42,3.58-4.01,6.51-4.01,4.23,0,7.24,3.19,7.24,7.41Zm-.85,0c0-3.8-2.71-6.58-6.44-6.58s-6.46,2.83-6.46,6.58,2.78,6.58,6.46,6.58,6.44-2.78,6.44-6.58Z"/></g></g></g></svg>